<svg id="bbee30a2-fe52-4623-8ee1-cf0985f8ca0a" data-name="Layer 1" xmlns="http://www.w3.org/2000/svg" viewBox="0 0 480.3 686.37"><title>Diagrames 03</title><polygon points="294.81 104.67 243.93 0.5 119.38 0.5 170.04 104.67 294.81 104.67" style="fill:none;stroke:#fff;stroke-linejoin:round"/><rect x="-9.2" y="283.98" width="483.32" height="124.71" transform="translate(-113.88 578.79) rotate(-90)" style="fill:none;stroke:#fff;stroke-linejoin:round"/><polyline points="119.38 0.5 119.38 483.82 170.04 587.99 294.81 587.99" style="fill:none;stroke:#fff;stroke-linejoin:round"/><polyline points="294.81 587.99 294.81 104.67 243.93 0.5" style="fill:none;stroke:#fff;stroke-linejoin:round"/><line x1="316.61" y1="104.67" x2="338.42" y2="104.67" style="fill:none;stroke:#fff;stroke-linejoin:round"/><line x1="317.22" y1="587.99" x2="339.02" y2="587.99" style="fill:none;stroke:#fff;stroke-linejoin:round"/><line x1="327.52" y1="105.28" x2="327.52" y2="587.99" style="fill:none;stroke:#fff;stroke-linejoin:round"/><line x1="294.81" y1="607.98" x2="294.81" y2="629.78" style="fill:none;stroke:#fff;stroke-linejoin:round"/><line x1="169.74" y1="608.28" x2="169.74" y2="630.08" style="fill:none;stroke:#fff;stroke-linejoin:round"/><line x1="294.81" y1="618.58" x2="169.74" y2="618.58" style="fill:none;stroke:#fff;stroke-linejoin:round"/><text transform="translate(410.11 331.06)" style="font-size:20.927980422973633px;fill:#fff;font-family:Poppins-Light, Poppins;font-weight:300">Length</text><text transform="translate(186.35 674.56)" style="font-size:20.927980422973633px;fill:#fff;font-family:Poppins-Light, Poppins;font-weight:300">Thickness</text><text transform="translate(0 568.23)" style="font-size:20.927980422973633px;fill:#fff;font-family:Poppins-Light, Poppins;font-weight:300">Width</text><line x1="98.54" y1="485.12" x2="73.42" y2="485.12" style="fill:none;stroke:#fff;stroke-linejoin:round"/><line x1="149.31" y1="587.99" x2="124.19" y2="587.99" style="fill:none;stroke:#fff;stroke-linejoin:round"/><line x1="85.09" y1="485.12" x2="136.75" y2="587.99" style="fill:none;stroke:#fff;stroke-linejoin:round"/><polyline points="333.7 349.55 349.55 325.29 395.73 325.29" style="fill:none;stroke:#fff;stroke-linejoin:round"/><circle cx="395.73" cy="325.29" r="1.76" style="fill:#fff"/><polyline points="232.32 623.11 224.1 638.96 224.1 652.36" style="fill:none;stroke:#fff;stroke-linejoin:round"/><circle cx="224.1" cy="652.36" r="1.76" style="fill:#fff"/><polyline points="104.49 529.09 77.38 544.02 31.2 544.02" style="fill:none;stroke:#fff;stroke-linejoin:round"/><circle cx="31.2" cy="544.02" r="1.76" style="fill:#fff"/></svg>