<svg id="e72c1e57-56df-4887-bcd5-0d3682a0ad8a" data-name="Layer 1" xmlns="http://www.w3.org/2000/svg" viewBox="0 0 855.56 551.27"><title>Diagrames 03</title><line x1="181.67" y1="494.96" x2="210.1" y2="491.6" style="fill:none;stroke:#fff;stroke-linejoin:round"/><line x1="756.18" y1="490.19" x2="756.18" y2="500.62" style="fill:none;stroke:#fff;stroke-linejoin:round"/><polyline points="208.49 453.68 710.54 453.68 710.54 467.37 685.76 472.5 685.76 481.06 710.54 481.06 710.54 490.19" style="fill:none;stroke:#fff;stroke-linejoin:round"/><path d="M126,191.2v-7h11.91v-7.71H407.6v7.36H394.29v7.35H407.6v4.9h1.78l1.13.34c5.75,3.62,11.69,3.17,17.14-.21l.41-.13h4.06v5.61H165.25V191.2h-6.36l-.84.55a16.78,16.78,0,0,1-17.5.54l-1.92-1.09Z" style="fill:none;stroke:#fff;stroke-linejoin:round"/><path d="M126,259.42v-7h11.91v-7.71H407.6v7.36H394.29v7.35H407.6v4.91h1.78l1.13.33c5.75,3.62,11.69,3.18,17.14-.2l.41-.13h4.06v5.6H165.25V259.42h-6.36l-.84.55a16.76,16.76,0,0,1-17.5.55l-1.92-1.1Z" style="fill:none;stroke:#fff;stroke-linejoin:round"/><path d="M436.72,259.42v-7h11.91v-7.71H718.3v7.36H705v7.35H718.3v4.91h1.77l1.14.33c5.75,3.62,11.69,3.18,17.13-.2l.42-.13h4v5.6H475.94V259.42h-6.35l-.84.55a16.76,16.76,0,0,1-17.5.55l-1.92-1.1Z" style="fill:none;stroke:#fff;stroke-linejoin:round"/><path d="M418.4,191.38,413.94,186l9.19-7.57-4.9-6L626.35,1,631,6.63l-10.28,8.46,4.68,5.68,10.27-8.46,3.12,3.78L640.19,15l1.09-.46c6.74-.86,11-5,13.09-11l.24-.37L657.74.5l3.56,4.32L455.35,174.54l-6.68-8.11-4.91,4-.29,1A16.79,16.79,0,0,1,430.3,183l-2.17.38Z" style="fill:none;stroke:#fff;stroke-linejoin:round"/><polygon points="710.54 467.37 661.3 477.57 661.3 463.88 710.54 453.68 710.54 467.37" style="fill:none;stroke:#fff;stroke-linejoin:round"/><polygon points="661.3 491.26 710.54 481.06 685.76 481.06 636.52 491.26 661.3 491.26" style="fill:none;stroke:#fff;stroke-linejoin:round"/><polygon points="756.18 490.19 706.94 500.39 706.94 510.82 756.18 500.62 756.18 490.19" style="fill:none;stroke:#fff;stroke-linejoin:round"/><path d="M661.3,500.39l49.24-10.2h0a112.66,112.66,0,0,0,34.62,1.29l11-1.29" style="fill:none;stroke:#fff;stroke-linejoin:round"/><path d="M137.07,491.26v-13h22.17V463.88H661.3v13.69H636.52v13.69H661.3v9.13l4.41.84a97.33,97.33,0,0,0,36.25.09l5-.93v10.43H210.1V491.6H191.84l-.29.15a33.11,33.11,0,0,1-31-.49H137.07Z" style="fill:none;stroke:#fff;stroke-linejoin:round"/><line x1="208.48" y1="453.68" x2="159.24" y2="463.88" style="fill:none;stroke:#fff;stroke-linejoin:round"/><line x1="137.07" y1="478.22" x2="159.24" y2="473.42" style="fill:none;stroke:#fff;stroke-linejoin:round"/><line x1="137.07" y1="402.34" x2="137.07" y2="422.08" style="fill:none;stroke:#fff;stroke-linejoin:round"/><line x1="706.94" y1="402.89" x2="706.94" y2="422.62" style="fill:none;stroke:#fff;stroke-linejoin:round"/><line x1="137.62" y1="412.21" x2="706.94" y2="412.21" style="fill:none;stroke:#fff;stroke-linejoin:round"/><text transform="translate(389.34 390.8)" style="font-size:18.94256019592285px;fill:#fff;font-family:Poppins-Light, Poppins;font-weight:300">Length</text><line x1="99.8" y1="515.22" x2="119.54" y2="515.22" style="fill:none;stroke:#fff;stroke-linejoin:round"/><line x1="100.07" y1="461.93" x2="119.81" y2="461.93" style="fill:none;stroke:#fff;stroke-linejoin:round"/><text transform="translate(0 476.75)" style="font-size:18.94256019592285px;fill:#fff;font-family:Poppins-Light, Poppins;font-weight:300">Thickness</text><line x1="109.67" y1="461.93" x2="109.67" y2="515.22" style="fill:none;stroke:#fff;stroke-linejoin:round"/><line x1="706.94" y1="529.59" x2="706.94" y2="538.53" style="fill:none;stroke:#fff;stroke-linejoin:round"/><line x1="756.18" y1="516.42" x2="756.18" y2="525.36" style="fill:none;stroke:#fff;stroke-linejoin:round"/><line x1="756.18" y1="520.89" x2="706.94" y2="534.88" style="fill:none;stroke:#fff;stroke-linejoin:round"/><text transform="translate(801.63 540.58)" style="font-size:18.94256019592285px;fill:#fff;font-family:Poppins-Light, Poppins;font-weight:300">Width</text><polyline points="731.56 527.89 751.6 534.88 797.78 534.88" style="fill:none;stroke:#fff;stroke-linejoin:round"/><circle cx="797.78" cy="534.88" r="1.76" style="fill:#fff"/><polyline points="313.93 409.17 329.78 384.91 375.95 384.91" style="fill:none;stroke:#fff;stroke-linejoin:round"/><circle cx="375.95" cy="384.91" r="1.76" style="fill:#fff"/><polyline points="106.68 496.41 88.79 496.41 73.63 485.73" style="fill:none;stroke:#fff;stroke-linejoin:round"/><circle cx="73.63" cy="485.73" r="1.76" style="fill:#fff"/></svg>